<mxfile host="app.diagrams.net" agent="Mozilla/5.0 (Windows NT 10.0; Win64; x64) AppleWebKit/537.36 (KHTML, like Gecko) Chrome/133.0.0.0 Safari/537.36" version="26.0.11" pages="3">
  <diagram name="Trang-1" id="bNJ712F2EPSEOsJFF9pg">
    <mxGraphModel dx="1114" dy="600" grid="1" gridSize="10" guides="1" tooltips="1" connect="1" arrows="1" fold="1" page="1" pageScale="1" pageWidth="827" pageHeight="1169" math="0" shadow="0">
      <root>
        <mxCell id="0" />
        <mxCell id="1" parent="0" />
        <mxCell id="Er7nyT85Nt2MQSjmXCIu-1" value="" style="rounded=0;whiteSpace=wrap;html=1;" vertex="1" parent="1">
          <mxGeometry x="94" y="280" width="640" height="440" as="geometry" />
        </mxCell>
      </root>
    </mxGraphModel>
  </diagram>
  <diagram id="2TNNzSSSD4ydTau_Th4e" name="Giao diện chung">
    <mxGraphModel dx="1114" dy="600" grid="1" gridSize="10" guides="1" tooltips="1" connect="1" arrows="1" fold="1" page="1" pageScale="1" pageWidth="827" pageHeight="1169" math="0" shadow="0">
      <root>
        <mxCell id="0" />
        <mxCell id="1" parent="0" />
        <mxCell id="i891yApTalWDL6wZKGM_-1" value="" style="rounded=0;whiteSpace=wrap;html=1;" vertex="1" parent="1">
          <mxGeometry x="84" y="80" width="660" height="470" as="geometry" />
        </mxCell>
      </root>
    </mxGraphModel>
  </diagram>
  <diagram name="Bản sao của Giao diện chung" id="qzEDXYYQoyRVROCkS8z_">
    <mxGraphModel dx="1114" dy="600" grid="1" gridSize="10" guides="1" tooltips="1" connect="1" arrows="1" fold="1" page="1" pageScale="1" pageWidth="827" pageHeight="1169" math="0" shadow="0">
      <root>
        <mxCell id="Is3KtnW3lMFdNGt9SrXK-0" />
        <mxCell id="Is3KtnW3lMFdNGt9SrXK-1" parent="Is3KtnW3lMFdNGt9SrXK-0" />
        <mxCell id="Is3KtnW3lMFdNGt9SrXK-2" value="" style="rounded=0;whiteSpace=wrap;html=1;" vertex="1" parent="Is3KtnW3lMFdNGt9SrXK-1">
          <mxGeometry x="84" y="80" width="660" height="470" as="geometry" />
        </mxCell>
      </root>
    </mxGraphModel>
  </diagram>
</mxfile>
